<?xml version="1.0" encoding="iso-8859-1"?>
<!-- Generator: Adobe Illustrator 19.0.0, SVG Export Plug-In . SVG Version: 6.00 Build 0)  -->
<svg version="1.1" id="Capa_1" xmlns="http://www.w3.org/2000/svg" xmlns:xlink="http://www.w3.org/1999/xlink" x="0px" y="0px"
	 viewBox="0 0 406.8 406.8" style="enable-background:new 0 0 406.8 406.8;" xml:space="preserve">
<g>
	<path style="fill:#F4F4F4;" d="M323.2,7.6h-98.4H126c-20.4,0-37.2,16.8-37.2,37.2v6.8v304h229.6h4.8c20.4,0,37.2-16.8,37.2-37.2
		V44.8C360.4,24.4,343.6,7.6,323.2,7.6z"/>
	<path style="fill:#F4F4F4;" d="M84,51.6c-20.4,0-37.2,16.8-37.2,37.2v273.6c0,20.4,16.8,37.2,37.2,37.2h197.2
		c20.4,0,37.2-16.8,37.2-37.2V128l-68-76.4H84z"/>
</g>
<polygon style="fill:#C6C6C6;" points="250.4,128 318.4,128 250.4,51.6 "/>
<g>
	<path style="fill:#191919;" d="M323.2,0H126c-24.4,0-44.4,19.6-44.8,44c-23.6,1.2-42.4,20.8-42.4,44.4V362
		c0,24.8,20,44.8,44.8,44.8h197.2c24.4,0,44.4-19.6,44.8-44c23.6-1.2,42.4-20.8,42.4-44.4V44.8C368,20,348,0,323.2,0z M310.8,362.4
		c0,16.4-13.2,29.6-29.6,29.6H84c-16.4,0-29.6-13.2-29.6-29.6V88.8c0-16.4,13.2-29.6,29.6-29.6h159.2V128c0,4,3.2,7.6,7.6,7.6h60.4
		v226.8H310.8z M258,120.4V71.2l44,49.2H258z M353.2,318.4c0,15.6-12,28.4-27.2,29.6V128c0-0.8-0.4-2-0.4-2.8c0-0.4-0.4-0.4-0.4-0.8
		c-0.4-0.4-0.4-0.8-0.8-1.2l-68-76.4l0,0c-0.4-0.4-1.2-0.8-1.6-1.2c-0.4,0-0.4-0.4-0.8-0.4c-0.8-0.4-2-0.8-2.8-0.8H96.4
		c0.4-16,13.6-29.2,29.6-29.2h197.2c16.4,0,29.6,13.2,29.6,29.6v273.6H353.2z"/>
	<path style="fill:#191919;" d="M158.4,120.4h-66c-4,0-7.6,3.2-7.6,7.6c0,4,3.2,7.6,7.6,7.6H158c4,0,7.6-3.2,7.6-7.6
		C165.6,124,162.4,120.4,158.4,120.4z"/>
	<path style="fill:#191919;" d="M158.4,316.4h-66c-4,0-7.6,3.2-7.6,7.6c0,4,3.2,7.6,7.6,7.6H158c4,0,7.6-3.2,7.6-7.6
		C165.6,320,162.4,316.4,158.4,316.4z"/>
	<path style="fill:#191919;" d="M268.8,170h-176c-4,0-7.6,3.2-7.6,7.6c0,4,3.2,7.6,7.6,7.6h176c4,0,7.6-3.2,7.6-7.6
		C276,173.6,272.8,170,268.8,170z"/>
	<path style="fill:#191919;" d="M268.8,206.8h-176c-4,0-7.6,3.2-7.6,7.6c0,4,3.2,7.6,7.6,7.6h176c4,0,7.6-3.2,7.6-7.6
		C276,210.4,272.8,206.8,268.8,206.8z"/>
	<path style="fill:#191919;" d="M268.8,243.6h-176c-4,0-7.6,3.2-7.6,7.6c0,4,3.2,7.6,7.6,7.6h176c4,0,7.6-3.2,7.6-7.6
		C276,247.2,272.8,243.6,268.8,243.6z"/>
	<path style="fill:#191919;" d="M268.8,280.4h-176c-4,0-7.6,3.2-7.6,7.6c0,4,3.2,7.6,7.6,7.6h176c4,0,7.6-3.2,7.6-7.6
		C276,284,272.8,280.4,268.8,280.4z"/>
</g>
<g>
</g>
<g>
</g>
<g>
</g>
<g>
</g>
<g>
</g>
<g>
</g>
<g>
</g>
<g>
</g>
<g>
</g>
<g>
</g>
<g>
</g>
<g>
</g>
<g>
</g>
<g>
</g>
<g>
</g>
</svg>
